<?xml version="1.0" encoding="utf-8"?>
<!-- Generator: Adobe Illustrator 24.3.0, SVG Export Plug-In . SVG Version: 6.00 Build 0)  -->
<svg version="1.1" id="Layer_1" xmlns="http://www.w3.org/2000/svg" xmlns:xlink="http://www.w3.org/1999/xlink" x="0px" y="0px"
	 viewBox="0 0 120 120" enable-background="new 0 0 120 120" xml:space="preserve">
<g>
	<path fill="#FBCF26" d="M53.535,45.876c0-1.933-1.566-3.499-3.498-3.499c-1.932,0-3.498,1.566-3.498,3.499
		c0,1.933,1.566,3.5,3.498,3.5C51.969,49.376,53.535,47.809,53.535,45.876z M43.981,59.045c-1.929,0-3.494,1.567-3.494,3.5
		c0,1.933,1.564,3.499,3.494,3.499s3.494-1.566,3.494-3.499C47.475,60.611,45.911,59.045,43.981,59.045z M56.702,72.377
		c-1.932,0-3.499,1.567-3.499,3.5c0,1.933,1.567,3.5,3.499,3.5c1.932,0,3.499-1.566,3.499-3.5
		C60.201,73.944,58.634,72.377,56.702,72.377z M74.292,68.134c-1.925,0-3.485,1.567-3.485,3.501c0,1.934,1.56,3.5,3.485,3.5
		c1.924,0,3.485-1.567,3.485-3.5C77.777,69.701,76.217,68.134,74.292,68.134z"/>
</g>
<path fill="#1A2559" d="M37.474,62.546c0.002,3.589,2.91,6.497,6.502,6.499c3.589-0.002,6.497-2.91,6.499-6.499
	c-0.002-3.593-2.91-6.501-6.499-6.501C40.384,56.045,37.474,58.953,37.474,62.546z M43.976,59.045
	c1.931,0.002,3.495,1.566,3.499,3.501c-0.004,1.929-1.569,3.496-3.499,3.498c-1.933-0.002-3.498-1.569-3.502-3.498
	C40.478,60.611,42.042,59.047,43.976,59.045z"/>
<path fill="#1A2559" d="M56.702,82.377c3.591-0.002,6.499-2.908,6.501-6.499c-0.002-3.591-2.91-6.501-6.501-6.501
	c-3.591,0-6.499,2.91-6.501,6.501C50.203,79.469,53.111,82.377,56.702,82.377z M56.702,72.377c1.932,0.004,3.496,1.567,3.499,3.501
	c-0.003,1.932-1.567,3.495-3.499,3.499c-1.932-0.004-3.497-1.567-3.499-3.499C53.205,73.944,54.769,72.381,56.702,72.377z"/>
<path fill="#1A2559" d="M80.778,71.635c-0.002-3.591-2.911-6.499-6.5-6.499c-3.591,0-6.5,2.908-6.5,6.499
	c0,3.592,2.909,6.498,6.5,6.5C77.867,78.133,80.776,75.226,80.778,71.635z M70.777,71.635c0.004-1.935,1.568-3.497,3.501-3.501
	c1.933,0.004,3.495,1.566,3.499,3.501c-0.004,1.932-1.566,3.495-3.499,3.5C72.345,75.13,70.781,73.566,70.777,71.635z"/>
<path fill="#1A2559" d="M50.034,52.378c3.59-0.002,6.499-2.91,6.501-6.5c0-3.591-2.91-6.501-6.501-6.501
	c-3.59,0-6.499,2.91-6.5,6.501C43.536,49.468,46.444,52.376,50.034,52.378z M50.034,42.377c1.934,0.004,3.497,1.567,3.501,3.501
	c-0.004,1.931-1.567,3.496-3.501,3.498c-1.931-0.002-3.497-1.567-3.499-3.498C46.538,43.944,48.103,42.381,50.034,42.377z"/>
<path fill="#1A2559" d="M89.491,56.363c-1.086-1.153-2.558-1.788-4.144-1.788H72.56l-0.57,0.581c-0.864,0.862-1.984,1.29-3.118,1.29
	c-1.132,0-2.253-0.428-3.116-1.29c-0.865-0.867-1.291-1.986-1.292-3.119c0.002-1.134,0.428-2.253,1.29-3.115l0.444-0.419
	c0,0-0.003-0.914-0.003-2.019V34.014c0-1.674-0.67-3.227-1.888-4.373c-1.205-1.137-2.846-1.726-4.506-1.632
	c-1.307,0.078-4.92,0.51-5.217,0.558c-3.315,0.53-6.455,1.581-9.341,3.059c-0.002,0.001-0.004,0.002-0.005,0.003
	C35.055,36.846,28.081,47.435,28.08,59.665c0.002,17.396,14.102,31.498,31.5,31.5c11.439-0.001,21.444-6.103,26.96-15.224
	l0.049,0.032c1.374-2.106,2.321-4.432,2.996-6.741c0.671-2.106,1.462-6.537,1.452-8.599C91.029,59.059,90.567,57.506,89.491,56.363z
	 M87.048,67.221c-0.038,0.139-0.072,0.279-0.112,0.417c-0.017,0.064-0.037,0.129-0.055,0.193
	C83.39,79.63,72.499,88.232,59.566,88.256c-15.74-0.029-28.472-12.76-28.499-28.499c0.025-14.374,10.645-26.229,24.474-28.204
	c0.188-0.027,3.231-0.502,4.418-0.573c0.877-0.053,1.718,0.25,2.356,0.851c0.633,0.597,0.981,1.404,0.981,2.274
	c0,0-0.063,12.969-0.078,13.217c-1.178,1.38-1.771,3.097-1.769,4.806c-0.002,1.89,0.725,3.796,2.17,5.241
	c1.441,1.441,3.346,2.17,5.238,2.17c1.724,0,3.459-0.604,4.845-1.805c0.165-0.019,0.383-0.043,0.625-0.068h11.005
	c0.75,0,1.446,0.301,1.96,0.846c0.519,0.551,0.78,1.272,0.734,2.032C87.912,62.479,87.637,64.82,87.048,67.221z"/>
</svg>
